<?xml version="1.0" standalone="no"?><!DOCTYPE svg PUBLIC "-//W3C//DTD SVG 1.1//EN" "http://www.w3.org/Graphics/SVG/1.1/DTD/svg11.dtd"><svg t="1488425683404" class="icon" style="" viewBox="0 0 1024 1024" version="1.1" xmlns="http://www.w3.org/2000/svg" p-id="19920" xmlns:xlink="http://www.w3.org/1999/xlink" width="16" height="16"><defs><style type="text/css"></style></defs><path d="M1014.2 967.8l-172.4-172.4c73.6-84.4 118.2-194.7 118.2-315.4 0-265.1-214.9-480-480-480s-480 214.9-480 480 214.9 480 480 480c121.3 0 232.1-45 316.6-119.2L969 1013.1c6.2 6.2 14.4 9.4 22.6 9.4s16.4-3.1 22.6-9.4C1026.7 1000.6 1026.7 980.3 1014.2 967.8zM480 896c-56.2 0-110.7-11-161.9-32.7-49.5-20.9-94-51-132.3-89.2s-68.2-82.7-89.2-132.3C75 590.6 64 536.2 64 480c0-56.2 11-110.7 32.7-161.9 20.9-49.5 51-94 89.2-132.3s82.7-68.2 132.3-89.2c51.2-21.7 105.7-32.7 161.9-32.7 56.2 0 110.7 11 161.9 32.7 49.5 20.9 94 51 132.3 89.2s68.2 82.7 89.2 132.3C885 369.3 896 423.8 896 480c0 56.2-11 110.7-32.7 161.9-20.9 49.5-51 94-89.2 132.3s-82.7 68.2-132.3 89.2C590.7 885 536.2 896 480 896z" p-id="19921" fill="#ffffff"></path><path d="M687 250c-38.1 0-69 30.9-69 69 0 13.2 3.7 25.5 10.1 36L553 480.1c-1.3-0.1-2.7-0.1-4-0.1-7.2 0-14.1 1.1-20.6 3.1l-51.5-51.5c2-6.5 3.1-13.4 3.1-20.6 0-38.1-30.9-69-69-69-38.1 0-69 30.9-69 69 0 13.2 3.7 25.5 10.1 36L277 572.1c-1.3-0.1-2.7-0.1-4-0.1-38.1 0-69 30.9-69 69 0 38.1 30.9 69 69 69 38.1 0 69-30.9 69-69 0-13.2-3.7-25.5-10.1-36L407 479.8c1.3 0.1 2.7 0.1 4 0.1 7.2 0 14.1-1.1 20.6-3.1l51.5 51.5c-2 6.5-3.1 13.4-3.1 20.6 0 38.1 30.9 69 69 69 38.1 0 69-30.9 69-69 0-13.2-3.7-25.5-10.1-36L683 387.8c1.3 0.1 2.7 0.1 4 0.1 38.1 0 69-30.9 69-69S725.1 250 687 250zM273 646c-2.8 0-5-2.2-5-5s2.2-5 5-5 5 2.2 5 5S275.8 646 273 646zM411 416c-2.8 0-5-2.2-5-5s2.2-5 5-5 5 2.2 5 5S413.8 416 411 416zM549 554c-2.8 0-5-2.2-5-5s2.2-5 5-5 5 2.2 5 5S551.8 554 549 554zM687 324c-2.8 0-5-2.2-5-5s2.2-5 5-5 5 2.2 5 5S689.8 324 687 324z" p-id="19922" fill="#ffffff"></path></svg>