<?xml version="1.0" standalone="no"?><!DOCTYPE svg PUBLIC "-//W3C//DTD SVG 1.1//EN" "http://www.w3.org/Graphics/SVG/1.1/DTD/svg11.dtd"><svg t="1488425251476" class="icon" style="" viewBox="0 0 1024 1024" version="1.1" xmlns="http://www.w3.org/2000/svg" p-id="12876" xmlns:xlink="http://www.w3.org/1999/xlink" width="16" height="16"><defs><style type="text/css"></style></defs><path d="M264.832 762.048c-9.28-4.096-15.68-6.656-21.696-9.856-11.84-6.336-23.488-12.928-35.008-19.776-16.64-9.728-18.688-17.216-8.896-33.984 26.176-44.8 52.48-89.472 78.848-134.144 47.36-80.32 94.656-160.704 142.08-241.024 12.864-21.696 18.752-23.36 40.576-11.2 11.264 6.208 22.4 12.544 33.472 18.88C512.832 341.568 514.88 348.8 503.872 367.552 456 448.96 408 530.304 360.064 611.648c-25.728 43.776-51.2 87.552-77.376 130.944C278.336 749.952 270.976 755.52 264.832 762.048L264.832 762.048zM510.272 210.304c35.84-7.552 56.64 2.816 74.176 35.136 60.608 111.744 125.184 221.248 188.032 331.712 13.696 24 9.984 37.888-12.032 51.072-26.368 15.808-46.912 13.44-59.776-10.112-22.4-40.832-44.224-82.112-63.872-124.416C596.096 405.888 557.056 317.312 517.44 229.056 514.88 223.296 512.896 217.28 510.272 210.304L510.272 210.304zM313.472 436.352C284.544 488.96 257.472 538.496 229.824 587.648 227.712 591.424 220.672 594.432 215.936 594.56 180.288 595.136 144.704 594.88 109.12 594.88c-14.336 0-21.568-6.848-21.568-21.312 0-38.592 0-77.12 0-115.648 0-13.312 5.888-21.44 19.584-21.44C174.784 436.288 242.496 436.352 313.472 436.352L313.472 436.352zM735.872 436.352c61.888 0 121.28-0.064 180.672 0.128 12.544 0 19.712 7.168 19.84 19.648 0.256 39.04 0.128 78.208 0 117.248 0 13.696-9.024 20.672-21.056 21.12-31.424 0.96-62.912 0.512-94.464 0.128-3.2 0-8-2.432-9.344-5.312-22.656-45.248-44.864-90.56-67.2-135.936C741.952 448.768 739.712 444.096 735.872 436.352L735.872 436.352zM635.776 594.24 428.032 594.24c6.784-12.608 12.672-23.744 18.688-34.688 19.648-35.84 39.68-71.232 58.688-107.392 6.144-11.648 13.312-15.296 26.624-16.64C557.76 432.832 570.24 442.112 579.392 466.048 595.84 508.8 616.128 550.08 635.776 594.24L635.776 594.24zM891.584 852.224c-17.728-8.32-30.016-13.568-41.536-19.84-10.688-5.696-22.016-11.328-30.912-19.2-12.672-11.2-20.864-25.472-14.656-43.52 4.544-13.12 24.448-24.384 41.408-24.128 18.752 0.128 29.888 12.032 33.536 28.032C885.056 798.144 887.296 823.616 891.584 852.224L891.584 852.224zM795.648 748.992c-7.872-6.336-14.912-9.728-19.008-15.36-9.984-13.696-18.752-28.16-27.904-42.368-7.872-12.288-5.056-22.656 7.68-29.12 37.696-19.136 44.672-27.904 66.56 17.984 1.984 4.032 5.504 7.936 6.336 12.288 2.112 10.176 7.744 24.448 3.264 30.144C823.872 733.504 809.088 739.84 795.648 748.992L795.648 748.992zM158.72 834.048c3.328-25.856 6.08-50.176 9.6-74.304 1.536-10.688 8.704-13.504 17.92-8.512 16.384 8.768 32.704 17.664 48.704 27.2 10.048 5.888 10.688 13.568 0.832 20.416-20.608 14.144-41.536 27.904-62.528 41.408C163.904 846.528 159.552 842.688 158.72 834.048L158.72 834.048zM491.84 114.24c29.952 24.128 44.48 55.936 65.664 87.872-17.152 0-31.232 0.128-45.312-0.192-2.368-0.064-6.336-1.92-6.72-3.712C498.944 173.76 492.992 149.184 487.104 124.48 486.72 122.816 488.896 120.448 491.84 114.24L491.84 114.24zM491.84 114.24" p-id="12877" fill="#ffffff"></path></svg>