<?xml version="1.0" standalone="no"?><!DOCTYPE svg PUBLIC "-//W3C//DTD SVG 1.1//EN" "http://www.w3.org/Graphics/SVG/1.1/DTD/svg11.dtd"><svg t="1488425964791" class="icon" style="" viewBox="0 0 1024 1024" version="1.1" xmlns="http://www.w3.org/2000/svg" p-id="21955" xmlns:xlink="http://www.w3.org/1999/xlink" width="16" height="16"><defs><style type="text/css"></style></defs><path d="M485.734375 76.859375c-235.21875 0-425.578125 165.59375-425.578125 369.859375 0 125.328125 72.734375 236.765625 182.609375 304.828125l0 114.53125c0 15.46875 10.828125 24.75 23.21875 24.75 4.640625 0 9.296875-1.53125 12.375-3.09375l116.0625-77.375c29.421875 6.1875 58.8125 7.75 89.765625 7.75 235.21875 0 425.5625-165.59375 425.5625-369.859375C911.315625 242.453125 720.971875 76.859375 485.734375 76.859375zM485.734375 756.20625c-26.3125 0-52.625-3.09375-78.921875-7.75l-12.390625-3.09375c-7.734375-1.53125-15.46875 0-23.21875 4.65625l-10.8125 7.71875-55.71875 37.15625 0-43.34375 0-17c0-10.84375-6.1875-21.6875-15.46875-26.3125l-15.484375-9.28125c-95.953125-57.28125-153.203125-151.65625-153.203125-250.703125 0-170.21875 162.5-307.9375 363.671875-307.9375 201.1875 0 363.65625 137.71875 363.65625 307.9375C849.409375 616.925 685.378125 756.20625 485.734375 756.20625zM244.3125 457.53125c0 28.21875 22.859375 51.078125 51.078125 51.078125 28.203125 0 51.0625-22.859375 51.0625-51.078125 0-28.171875-22.859375-51.046875-51.0625-51.046875C267.171875 406.484375 244.3125 429.359375 244.3125 457.53125zM437.765625 457.53125c0 28.21875 22.859375 51.078125 51.0625 51.078125s51.078125-22.859375 51.078125-51.078125c0-28.171875-22.875-51.046875-51.078125-51.046875S437.765625 429.359375 437.765625 457.53125zM625 457.53125c0 28.21875 22.875 51.078125 51.0625 51.078125 28.21875 0 51.09375-22.859375 51.09375-51.078125 0-28.171875-22.875-51.046875-51.09375-51.046875C647.875 406.484375 625 429.359375 625 457.53125zM918.128 537.488c-0.912-1.152-1.872-2.256-2.816-3.408-6.656 25.28-16.16 49.632-28.128 72.752 0.496 1.12 1.12 2.192 1.6 3.312 8.096 18.624 12.496 38.752 12.496 59.744 0 55.664-32.16 108.688-86.064 140.848l-8.688 5.216c-5.216 2.592-8.72 8.688-8.72 14.784l0 9.568 0 24.336-31.28-20.88-6.096-4.336c-4.336-2.592-8.688-3.472-13.024-2.592l-6.944 1.712c-14.816 2.656-29.6 4.336-44.336 4.336-35.44 0-68.816-7.84-97.936-21.504-28.912 6.752-58.912 11.008-89.808 12.464 48.4 41.712 115.008 67.504 188.592 67.504 19.504 0 38-0.976 56.496-4.848l73.056 48.688c1.936 0.976 4.848 1.936 7.744 1.936 7.808 0 14.624-5.84 14.624-15.568l0-72.096c69.152-42.848 114.944-112.976 114.944-191.84C963.84 619.424 946.992 574.64 918.128 537.488z" p-id="21956" fill="#ffffff"></path></svg>