<?xml version="1.0" standalone="no"?><!DOCTYPE svg PUBLIC "-//W3C//DTD SVG 1.1//EN" "http://www.w3.org/Graphics/SVG/1.1/DTD/svg11.dtd"><svg t="1488426488136" class="icon" style="" viewBox="0 0 1024 1024" version="1.1" xmlns="http://www.w3.org/2000/svg" p-id="25191" xmlns:xlink="http://www.w3.org/1999/xlink" width="16" height="16"><defs><style type="text/css"></style></defs><path d="M895.936045 128.115119c38.373139 0 63.955231 25.582093 63.955231 63.955231l0 447.993604c0 38.373139-25.582093 63.955231-63.955231 63.955231L128.063955 704.019187c-38.373139 0-63.955231-25.582093-63.955231-63.955231L64.108724 192.070351c0-38.373139 25.582093-63.955231 63.955231-63.955231L895.936045 128.115119 895.936045 128.115119zM895.936045 64.05756 128.063955 64.05756C57.662037 64.05756 0.051164 121.668432 0.051164 192.070351l0 447.993604c0 70.401919 57.610872 128.012791 128.012791 128.012791l767.87209 0c70.401919 0 128.012791-57.610872 128.012791-128.012791L1023.948836 192.070351C1023.948836 121.668432 966.337963 64.05756 895.936045 64.05756L895.936045 64.05756" p-id="25192" fill="#ffffff"></path><path d="M640.012791 895.987209 640.012791 832.031978 383.987209 832.031978 383.987209 895.987209 192.019187 895.987209 192.019187 959.94244 831.980813 959.94244 831.980813 895.987209 640.012791 895.987209Z" p-id="25193" fill="#ffffff"></path><path d="M192.019187 447.993604 320.031978 447.993604 320.031978 640.063955 192.019187 640.063955 192.019187 447.993604Z" p-id="25194" fill="#ffffff"></path><path d="M448.044769 256.025582 575.955231 256.025582 575.955231 640.063955 448.044769 640.063955 448.044769 256.025582Z" p-id="25195" fill="#ffffff"></path><path d="M703.968022 384.038373 831.980813 384.038373 831.980813 640.063955 703.968022 640.063955 703.968022 384.038373Z" p-id="25196" fill="#ffffff"></path></svg>