<?xml version="1.0" standalone="no"?><!DOCTYPE svg PUBLIC "-//W3C//DTD SVG 1.1//EN" "http://www.w3.org/Graphics/SVG/1.1/DTD/svg11.dtd"><svg t="1488425472803" class="icon" style="" viewBox="0 0 1027 1024" version="1.1" xmlns="http://www.w3.org/2000/svg" p-id="15551" xmlns:xlink="http://www.w3.org/1999/xlink" width="16.046875" height="16"><defs><style type="text/css"></style></defs><path d="M505.432 272.949m-234.713 0a234.713 234.713 0 1 0 469.426 0 234.713 234.713 0 1 0-469.426 0Z" fill="#ffffff" p-id="15552"></path><path d="M505.432 536.662c-70.44 0-136.664-27.431-186.473-77.24s-77.24-116.033-77.24-186.473c0-70.44 27.431-136.665 77.24-186.474s116.033-77.24 186.473-77.24c70.44 0 136.665 27.431 186.474 77.24s77.239 116.033 77.239 186.473c0 70.44-27.431 136.664-77.239 186.473-49.809 49.81-116.034 77.241-186.474 77.241z m0-469.426c-113.431 0-205.713 92.283-205.713 205.713s92.282 205.713 205.713 205.713 205.713-92.282 205.713-205.713S618.862 67.236 505.432 67.236z" fill="#ffffff" p-id="15553"></path><path d="M992.001 828h-90.999v-91c0-19.33-15.67-35-35.001-35-19.33 0-35 15.67-35 35v91h-91c-19.33 0-35 15.67-35 35 0 19.331 15.67 35.001 35 35.001h91V989c0 19.33 15.67 35 35 35 19.331 0 35.001-15.67 35.001-35v-90.999h90.999c19.33 0 35-15.67 35-35.001 0-19.33-15.67-35-35-35z" fill="#ffffff" p-id="15554"></path><path d="M779.692 657.083c-77.034-54.285-171.79-85.851-274.262-85.851-240.824 0-439.105 174.28-464.675 408.301h8.17C79.563 752.097 272.09 576.845 505.031 576.845c95.717 0 184.602 29.598 258.24 80.238h16.421z" fill="#ffffff" p-id="15555"></path><path d="M74.282 1008.533H8.415l3.513-32.149C25.083 855.973 82.369 745.687 173.23 665.841c90.708-79.71 208.685-123.608 332.201-123.608 105.736 0 206.352 31.518 290.967 91.146l74.793 52.705H754.263l-7.424-5.105c-71.475-49.152-155.091-75.133-241.808-75.133-214.643 0-398.37 162.315-427.364 377.56l-3.385 25.127z" fill="#ffffff" p-id="15556"></path></svg>