<?xml version="1.0" standalone="no"?><!DOCTYPE svg PUBLIC "-//W3C//DTD SVG 1.1//EN" "http://www.w3.org/Graphics/SVG/1.1/DTD/svg11.dtd"><svg t="1488426687500" class="icon" style="" viewBox="0 0 1024 1024" version="1.1" xmlns="http://www.w3.org/2000/svg" p-id="26467" xmlns:xlink="http://www.w3.org/1999/xlink" width="16" height="16"><defs><style type="text/css"></style></defs><path d="M780.144 397.791 685.5 397.791l-2.803 0L559.239 397.791 473.5 397.791 243.855 397.791c-43.259 0-79.291 30.707-87.6 71.505l-1.781 0 0 286.021c0 49.353 40.013 89.382 89.382 89.382l17.876 0 0 125.134 429.031 0L690.763 612.307c0-19.743 15.99-35.753 35.752-35.753 19.727 0 35.753 16.008 35.753 35.753l0 357.526 0.001 0 107.256 0L869.525 487.172C869.525 437.803 829.512 397.791 780.144 397.791zM261.731 683.812 261.731 576.554l53.629 0 0 107.258L261.731 683.812z" p-id="26468" fill="#ffffff"></path><path d="M508.996 359.053 508.996 359.053c78.175 0 141.546-63.37 141.545-141.509 0-78.173-63.371-141.526-141.545-141.526-78.139 0-141.508 63.353-141.508 141.526C367.488 295.684 430.857 359.053 508.996 359.053z" p-id="26469" fill="#ffffff"></path></svg>