<?xml version="1.0" standalone="no"?><!DOCTYPE svg PUBLIC "-//W3C//DTD SVG 1.1//EN" "http://www.w3.org/Graphics/SVG/1.1/DTD/svg11.dtd"><svg t="1488530447253" class="icon" style="" viewBox="0 0 1024 1024" version="1.1" xmlns="http://www.w3.org/2000/svg" p-id="3239" xmlns:xlink="http://www.w3.org/1999/xlink" width="16" height="16"><defs><style type="text/css"></style></defs><path d="M860.842667 0 129.408 0C48.682667 0 0 48.426667 0 129.237333l0 731.434667C0 941.397333 48.682667 1024 129.408 1024l731.434667 0C941.653333 1024 1024 941.397333 1024 860.672L1024 129.237333C1024 48.426667 941.653333 0 860.842667 0zM768 554.666667 554.666667 554.666667l0 213.333333L469.333333 768 469.333333 554.666667 256 554.666667 256 469.333333l213.333333 0L469.333333 256l85.333333 0 0 213.333333 213.333333 0L768 554.666667z" p-id="3240"></path></svg>