<?xml version="1.0" standalone="no"?><!DOCTYPE svg PUBLIC "-//W3C//DTD SVG 1.1//EN" "http://www.w3.org/Graphics/SVG/1.1/DTD/svg11.dtd"><svg t="1488424643468" class="icon" style="" viewBox="0 0 1024 1024" version="1.1" xmlns="http://www.w3.org/2000/svg" p-id="6580" xmlns:xlink="http://www.w3.org/1999/xlink" width="16" height="16"><defs><style type="text/css"></style></defs><path d="M305.438481 725.056444c38.090527 0 68.976978-30.886451 68.976978-68.976978 0-13.882172-4.112668-26.825972-11.183713-37.642319l74.133418-123.57241c1.990331 0.184195 3.980661 0.288572 6.027274 0.288572 2.043542 0 4.033873-0.104377 6.024204-0.288572l74.137511 123.57241c-7.075139 10.816347-11.187807 23.760147-11.187807 37.642319 0 38.090527 30.886451 68.976978 68.976978 68.976978s68.972884-30.886451 68.972884-68.976978c0-14.406105-4.424776-27.792996-11.995195-38.873356l122.388445-214.187197c1.51961 0.10847 3.038196 0.160659 4.560876 0.160659 38.090527 0 68.973908-30.887474 68.973908-68.978001 0-38.089503-30.883381-68.976978-68.973908-68.976978-38.089503 0-68.976978 30.887474-68.976978 68.976978 0 14.434757 4.428869 27.821649 12.000312 38.878472l-122.393561 214.182081c-1.518586-0.103354-3.038196-0.155543-4.556783-0.155543-2.042519 0-4.03285 0.103354-6.028297 0.287549l-74.133418-123.57241c7.071046-10.816347 11.184737-23.759123 11.184737-37.642319 0-38.089503-30.887474-68.976978-68.973908-68.976978-38.089503 0-68.976978 30.887474-68.976978 68.976978 0 13.883195 4.137227 26.825972 11.184737 37.642319l-74.133418 123.57241c-1.991354-0.184195-4.009314-0.287549-6.028297-0.287549-38.090527 0-68.972884 30.883381-68.972884 68.972884C236.465596 694.169993 267.347954 725.056444 305.438481 725.056444L305.438481 725.056444zM305.438481 725.056444" p-id="6581" fill="#ffffff"></path><path d="M197.639313 145.246035l-52.392254 0 0 693.501774 0 40.005133 43.278689 0 690.228217 0 0-52.392254-681.114652 0L197.639313 145.246035zM197.639313 145.246035" p-id="6582" fill="#ffffff"></path></svg>