<?xml version="1.0" standalone="no"?><!DOCTYPE svg PUBLIC "-//W3C//DTD SVG 1.1//EN" "http://www.w3.org/Graphics/SVG/1.1/DTD/svg11.dtd"><svg t="1488425519334" class="icon" style="" viewBox="0 0 1024 1024" version="1.1" xmlns="http://www.w3.org/2000/svg" p-id="17383" xmlns:xlink="http://www.w3.org/1999/xlink" width="16" height="16"><defs><style type="text/css"></style></defs><path d="M819.2 486.4c-5.12-66.56-30.72-125.44-71.68-171.52l92.16-89.6-35.84-35.84-92.16 89.6c-48.64-40.96-107.52-66.56-171.52-71.68L540.16 102.4l-51.2 0 0 104.96c-66.56 5.12-125.44 30.72-171.52 71.68L222.72 186.88 186.88 222.72l92.16 89.6C238.08 360.96 212.48 419.84 204.8 486.4L102.4 486.4l0 51.2L204.8 537.6c5.12 66.56 30.72 125.44 71.68 171.52l-66.56 64 35.84 35.84 66.56-64c48.64 40.96 107.52 66.56 171.52 71.68L483.84 921.6l51.2 0 0-104.96c66.56-5.12 125.44-30.72 171.52-71.68l66.56 64 35.84-35.84-66.56-64c40.96-48.64 66.56-107.52 71.68-171.52L921.6 537.6l0-51.2L819.2 486.4zM512 768c-140.8 0-256-115.2-256-256 0-140.8 115.2-256 256-256s256 115.2 256 256C768 652.8 652.8 768 512 768zM512 460.8c-28.16 0-51.2 23.04-51.2 51.2 0 28.16 23.04 51.2 51.2 51.2 28.16 0 51.2-23.04 51.2-51.2C563.2 483.84 540.16 460.8 512 460.8z" p-id="17384" fill="#ffffff"></path></svg>